<?xml version="1.0" encoding="UTF-8" standalone="no"?><svg xmlns="http://www.w3.org/2000/svg" xmlns:xlink="http://www.w3.org/1999/xlink" clip-rule="evenodd" stroke-miterlimit="4.00" viewBox="0 0 835 147"><desc>SVG generated by Keynote</desc><defs><pattern id="4AA41D18-85AB-40B8-8863-53EB9C70A0FB" patternUnits="userSpaceOnUse" width="300" height="300" viewBox="0 0 300 300" patternTransform="matrix(1.000000, 0.000000, 0.000000, -1.000000, 6.261719, 141.382100)"><image xlink:href="../../03A97BAE-1F82-4828-A3BE-307A56E6698B/assets/90096E66F30E4D38552F9ACA9C23E8B7.jpeg" width="300.00" height="300.00"></image></pattern></defs><g transform="matrix(1.00, 0.00, -0.00, -1.00, 0.0, 147.0)"><image xlink:href="E2FEE495BFECC0A44EE2B8C8AA1D7A6B.png" width="830.00" height="144.00" transform="matrix(1.00, 0.00, -0.00, -1.00, 3.3, 145.4)" opacity="0.50"></image><g><clipPath id="clip-125"><path d="M 525.4 141.4 C 520.9 141.4 517.3 137.8 517.3 133.3 L 517.3 105.8 L 6.3 89.6 L 517.3 73.4 L 517.3 13.6 C 517.3 9.1 520.9 5.5 525.4 5.5 L 820.5 5.5 C 825.0 5.5 828.6 9.1 828.6 13.6 L 828.6 133.3 C 828.6 137.8 825.0 141.4 820.5 141.4 L 525.4 141.4 Z M 525.4 141.4 "></path></clipPath><g clip-path="url(#clip-125)"><path d="M 6.3 5.5 L 828.6 5.5 L 828.6 141.4 L 6.3 141.4 Z M 6.3 5.5 " fill="url(#4AA41D18-85AB-40B8-8863-53EB9C70A0FB)"></path><path d="M 6.3 141.4 L 828.6 141.4 L 828.6 5.5 L 6.3 5.5 Z M 6.3 141.4 " fill="#00D026" fill-opacity="0.50"></path></g></g><g><clipPath id="clip-126"><path d="M 513.3 5.5 L 832.6 5.5 L 832.6 141.4 L 513.3 141.4 Z M 513.3 5.5 "></path></clipPath><g clip-path="url(#clip-126)"><text xml:space="preserve" font-family="Helvetica-Bold" font-weight="bold" font-size="32.0" fill="#FEFFFE" transform="matrix(1.00, 0.00, -0.00, -1.00, 543.0, 62.0)">I</text><text xml:space="preserve" font-family="Helvetica-Bold" font-weight="bold" font-size="32.0" fill="#FEFFFE" transform="matrix(1.00, 0.00, -0.00, -1.00, 551.9, 62.0)">n</text><text xml:space="preserve" font-family="Helvetica-Bold" font-weight="bold" font-size="32.0" fill="#FEFFFE" transform="matrix(1.00, 0.00, -0.00, -1.00, 571.4, 62.0)"> </text><text xml:space="preserve" font-family="Helvetica-Bold" font-weight="bold" font-size="32.0" fill="#FEFFFE" transform="matrix(1.00, 0.00, -0.00, -1.00, 580.3, 62.0)">s</text><text xml:space="preserve" font-family="Helvetica-Bold" font-weight="bold" font-size="32.0" fill="#FEFFFE" transform="matrix(1.00, 0.00, -0.00, -1.00, 598.1, 62.0)">o</text><text xml:space="preserve" font-family="Helvetica-Bold" font-weight="bold" font-size="32.0" fill="#FEFFFE" transform="matrix(1.00, 0.00, -0.00, -1.00, 617.7, 62.0)">u</text><text xml:space="preserve" font-family="Helvetica-Bold" font-weight="bold" font-size="32.0" fill="#FEFFFE" transform="matrix(1.00, 0.00, -0.00, -1.00, 637.2, 62.0)">r</text><text xml:space="preserve" font-family="Helvetica-Bold" font-weight="bold" font-size="32.0" fill="#FEFFFE" transform="matrix(1.00, 0.00, -0.00, -1.00, 649.7, 62.0)">c</text><text xml:space="preserve" font-family="Helvetica-Bold" font-weight="bold" font-size="32.0" fill="#FEFFFE" transform="matrix(1.00, 0.00, -0.00, -1.00, 667.5, 62.0)">e</text><text xml:space="preserve" font-family="Helvetica-Bold" font-weight="bold" font-size="32.0" fill="#FEFFFE" transform="matrix(1.00, 0.00, -0.00, -1.00, 685.3, 62.0)"> </text><text xml:space="preserve" font-family="Helvetica-Bold" font-weight="bold" font-size="32.0" fill="#FEFFFE" transform="matrix(1.00, 0.00, -0.00, -1.00, 694.1, 62.0)">c</text><text xml:space="preserve" font-family="Helvetica-Bold" font-weight="bold" font-size="32.0" fill="#FEFFFE" transform="matrix(1.00, 0.00, -0.00, -1.00, 711.9, 62.0)">o</text><text xml:space="preserve" font-family="Helvetica-Bold" font-weight="bold" font-size="32.0" fill="#FEFFFE" transform="matrix(1.00, 0.00, -0.00, -1.00, 731.5, 62.0)">n</text><text xml:space="preserve" font-family="Helvetica-Bold" font-weight="bold" font-size="32.0" fill="#FEFFFE" transform="matrix(1.00, 0.00, -0.00, -1.00, 751.0, 62.0)">t</text><text xml:space="preserve" font-family="Helvetica-Bold" font-weight="bold" font-size="32.0" fill="#FEFFFE" transform="matrix(1.00, 0.00, -0.00, -1.00, 761.7, 62.0)">r</text><text xml:space="preserve" font-family="Helvetica-Bold" font-weight="bold" font-size="32.0" fill="#FEFFFE" transform="matrix(1.00, 0.00, -0.00, -1.00, 774.1, 62.0)">o</text><text xml:space="preserve" font-family="Helvetica-Bold" font-weight="bold" font-size="32.0" fill="#FEFFFE" transform="matrix(1.00, 0.00, -0.00, -1.00, 793.7, 62.0)">l</text></g></g></g></svg>