<?xml version="1.0" encoding="UTF-8" standalone="no"?><svg xmlns="http://www.w3.org/2000/svg" xmlns:xlink="http://www.w3.org/1999/xlink" clip-rule="evenodd" stroke-miterlimit="4.00" viewBox="0 0 573 110"><desc>SVG generated by Keynote</desc><defs><pattern id="D24847F1-82C0-40A5-B1CA-BD4EB2130F3C" patternUnits="userSpaceOnUse" width="300" height="300" viewBox="0 0 300 300" patternTransform="matrix(1.000000, 0.000000, 0.000000, -1.000000, 6.872192, 104.984400)"><image xlink:href="../../03A97BAE-1F82-4828-A3BE-307A56E6698B/assets/90096E66F30E4D38552F9ACA9C23E8B7.jpeg" width="300.00" height="300.00"></image></pattern></defs><g transform="matrix(1.00, 0.00, -0.00, -1.00, 0.0, 110.0)"><image xlink:href="B6218F1B830A015C99405E432B6ED5DA.png" width="568.00" height="108.00" transform="matrix(1.00, 0.00, -0.00, -1.00, 3.9, 109.0)" opacity="0.50"></image><g><clipPath id="clip-107"><path d="M 263.6 105.0 C 259.2 105.0 255.6 101.4 255.6 96.9 L 255.6 72.0 L 6.9 55.8 L 255.6 39.7 L 255.6 13.1 C 255.6 8.6 259.2 5.0 263.6 5.0 L 558.7 5.0 C 563.2 5.0 566.8 8.6 566.8 13.1 L 566.8 96.9 C 566.8 101.4 563.2 105.0 558.7 105.0 L 263.6 105.0 Z M 263.6 105.0 "></path></clipPath><g clip-path="url(#clip-107)"><path d="M 6.9 5.0 L 566.8 5.0 L 566.8 105.0 L 6.9 105.0 Z M 6.9 5.0 " fill="url(#D24847F1-82C0-40A5-B1CA-BD4EB2130F3C)"></path><path d="M 6.9 105.0 L 566.8 105.0 L 566.8 5.0 L 6.9 5.0 Z M 6.9 105.0 " fill="#00D026" fill-opacity="0.50"></path></g></g><g><clipPath id="clip-108"><path d="M 251.6 5.0 L 570.8 5.0 L 570.8 105.0 L 251.6 105.0 Z M 251.6 5.0 "></path></clipPath><g clip-path="url(#clip-108)"><text xml:space="preserve" font-family="Helvetica-Bold" font-weight="bold" font-size="32.0" fill="#FEFFFE" transform="matrix(1.00, 0.00, -0.00, -1.00, 324.0, 43.0)">P</text><text xml:space="preserve" font-family="Helvetica-Bold" font-weight="bold" font-size="32.0" fill="#FEFFFE" transform="matrix(1.00, 0.00, -0.00, -1.00, 345.3, 43.0)">a</text><text xml:space="preserve" font-family="Helvetica-Bold" font-weight="bold" font-size="32.0" fill="#FEFFFE" transform="matrix(1.00, 0.00, -0.00, -1.00, 363.1, 43.0)">r</text><text xml:space="preserve" font-family="Helvetica-Bold" font-weight="bold" font-size="32.0" fill="#FEFFFE" transform="matrix(1.00, 0.00, -0.00, -1.00, 375.6, 43.0)">a</text><text xml:space="preserve" font-family="Helvetica-Bold" font-weight="bold" font-size="32.0" fill="#FEFFFE" transform="matrix(1.00, 0.00, -0.00, -1.00, 393.4, 43.0)">m</text><text xml:space="preserve" font-family="Helvetica-Bold" font-weight="bold" font-size="32.0" fill="#FEFFFE" transform="matrix(1.00, 0.00, -0.00, -1.00, 421.9, 43.0)">e</text><text xml:space="preserve" font-family="Helvetica-Bold" font-weight="bold" font-size="32.0" fill="#FEFFFE" transform="matrix(1.00, 0.00, -0.00, -1.00, 439.7, 43.0)">t</text><text xml:space="preserve" font-family="Helvetica-Bold" font-weight="bold" font-size="32.0" fill="#FEFFFE" transform="matrix(1.00, 0.00, -0.00, -1.00, 450.3, 43.0)">e</text><text xml:space="preserve" font-family="Helvetica-Bold" font-weight="bold" font-size="32.0" fill="#FEFFFE" transform="matrix(1.00, 0.00, -0.00, -1.00, 468.1, 43.0)">r</text><text xml:space="preserve" font-family="Helvetica-Bold" font-weight="bold" font-size="32.0" fill="#FEFFFE" transform="matrix(1.00, 0.00, -0.00, -1.00, 480.6, 43.0)">s</text></g></g></g></svg>