<?xml version="1.0" encoding="UTF-8" standalone="no"?><svg xmlns="http://www.w3.org/2000/svg" xmlns:xlink="http://www.w3.org/1999/xlink" clip-rule="evenodd" stroke-miterlimit="4.00" viewBox="0 0 351 60"><desc>SVG generated by Keynote</desc><defs></defs><g transform="matrix(1.00, 0.00, -0.00, -1.00, 0.0, 60.0)"><text xml:space="preserve" font-family="Helvetica-Bold" font-weight="bold" font-size="60.0" fill="#FF2600" transform="matrix(1.00, 0.00, -0.00, -1.00, -3.0, 14.0)">P</text><text xml:space="preserve" font-family="Helvetica-Bold" font-weight="bold" font-size="60.0" fill="#FF2600" transform="matrix(1.00, 0.00, -0.00, -1.00, 37.0, 14.0)">i</text><text xml:space="preserve" font-family="Helvetica-Bold" font-weight="bold" font-size="60.0" fill="#FF2600" transform="matrix(1.00, 0.00, -0.00, -1.00, 53.7, 14.0)">p</text><text xml:space="preserve" font-family="Helvetica-Bold" font-weight="bold" font-size="60.0" fill="#FF2600" transform="matrix(1.00, 0.00, -0.00, -1.00, 90.3, 14.0)">e</text><text xml:space="preserve" font-family="Helvetica-Bold" font-weight="bold" font-size="60.0" fill="#FF2600" transform="matrix(1.00, 0.00, -0.00, -1.00, 123.7, 14.0)">l</text><text xml:space="preserve" font-family="Helvetica-Bold" font-weight="bold" font-size="60.0" fill="#FF2600" transform="matrix(1.00, 0.00, -0.00, -1.00, 140.4, 14.0)">i</text><text xml:space="preserve" font-family="Helvetica-Bold" font-weight="bold" font-size="60.0" fill="#FF2600" transform="matrix(1.00, 0.00, -0.00, -1.00, 157.0, 14.0)">n</text><text xml:space="preserve" font-family="Helvetica-Bold" font-weight="bold" font-size="60.0" fill="#FF2600" transform="matrix(1.00, 0.00, -0.00, -1.00, 193.7, 14.0)">e</text><text xml:space="preserve" font-family="Helvetica-Bold" font-weight="bold" font-size="60.0" fill="#FF2600" transform="matrix(1.00, 0.00, -0.00, -1.00, 227.0, 14.0)"> </text><text xml:space="preserve" font-family="Helvetica-Bold" font-weight="bold" font-size="60.0" fill="#FF2600" transform="matrix(1.00, 0.00, -0.00, -1.00, 243.7, 14.0)">L</text><text xml:space="preserve" font-family="Helvetica-Bold" font-weight="bold" font-size="60.0" fill="#FF2600" transform="matrix(1.00, 0.00, -0.00, -1.00, 280.3, 14.0)">i</text><text xml:space="preserve" font-family="Helvetica-Bold" font-weight="bold" font-size="60.0" fill="#FF2600" transform="matrix(1.00, 0.00, -0.00, -1.00, 297.0, 14.0)">s</text><text xml:space="preserve" font-family="Helvetica-Bold" font-weight="bold" font-size="60.0" fill="#FF2600" transform="matrix(1.00, 0.00, -0.00, -1.00, 330.4, 14.0)">t</text></g></svg>