<?xml version="1.0" encoding="UTF-8" standalone="no"?><svg xmlns="http://www.w3.org/2000/svg" xmlns:xlink="http://www.w3.org/1999/xlink" clip-rule="evenodd" stroke-miterlimit="4.00" viewBox="0 0 243 59"><desc>SVG generated by Keynote</desc><defs></defs><g transform="matrix(1.00, 0.00, -0.00, -1.00, 0.0, 59.0)"><text xml:space="preserve" font-family="Helvetica-Light" font-size="61.0" fill="#000000" transform="matrix(1.00, 0.00, -0.00, -1.00, -3.0, 14.0)">p</text><text xml:space="preserve" font-family="Helvetica-Light" font-size="61.0" fill="#000000" transform="matrix(1.00, 0.00, -0.00, -1.00, 34.3, 14.0)">i</text><text xml:space="preserve" font-family="Helvetica-Light" font-size="61.0" fill="#000000" transform="matrix(1.00, 0.00, -0.00, -1.00, 47.8, 14.0)">p</text><text xml:space="preserve" font-family="Helvetica-Light" font-size="61.0" fill="#000000" transform="matrix(1.00, 0.00, -0.00, -1.00, 85.1, 14.0)">e</text><text xml:space="preserve" font-family="Helvetica-Light" font-size="61.0" fill="#000000" transform="matrix(1.00, 0.00, -0.00, -1.00, 119.0, 14.0)">l</text><text xml:space="preserve" font-family="Helvetica-Light" font-size="61.0" fill="#000000" transform="matrix(1.00, 0.00, -0.00, -1.00, 132.5, 14.0)">i</text><text xml:space="preserve" font-family="Helvetica-Light" font-size="61.0" fill="#000000" transform="matrix(1.00, 0.00, -0.00, -1.00, 146.1, 14.0)">n</text><text xml:space="preserve" font-family="Helvetica-Light" font-size="61.0" fill="#000000" transform="matrix(1.00, 0.00, -0.00, -1.00, 180.0, 14.0)">e</text><text xml:space="preserve" font-family="Helvetica-Light" font-size="61.0" fill="#000000" transform="matrix(1.00, 0.00, -0.00, -1.00, 213.9, 14.0)">s</text></g></svg>