<?xml version="1.0" encoding="UTF-8" standalone="no"?><svg xmlns="http://www.w3.org/2000/svg" xmlns:xlink="http://www.w3.org/1999/xlink" clip-rule="evenodd" stroke-miterlimit="4.00" viewBox="0 0 493 121"><desc>SVG generated by Keynote</desc><defs><pattern id="6200B87B-951F-4DCE-B89A-29002F058394" patternUnits="userSpaceOnUse" width="488" height="488" viewBox="0 0 488 488" patternTransform="matrix(0.614754, 0.000000, 0.000000, -0.614754, 6.966492, 115.813200)"><image xlink:href="../../8A793A16-170F-4B28-8B0A-6BDAAC8C8626/assets/7C1C4DF49C08CF7521E48A72004893E3.jpeg" width="488.00" height="488.00"></image></pattern></defs><g transform="matrix(1.00, 0.00, -0.00, -1.00, 0.0, 121.0)"><image xlink:href="858A4DC310F7B80451C0D108E40AC532.png" width="487.00" height="118.00" transform="matrix(1.00, 0.00, -0.00, -1.00, 4.0, 119.8)" opacity="0.50"></image><g><clipPath id="clip-19"><path d="M 13.8 115.8 C 10.0 115.8 7.0 112.7 7.0 108.9 L 7.0 12.4 C 7.0 8.6 10.0 5.5 13.8 5.5 L 233.2 5.5 C 237.0 5.5 240.1 8.6 240.1 12.4 L 240.1 55.2 L 486.4 69.0 L 240.1 82.8 L 240.1 108.9 C 240.1 112.7 237.0 115.8 233.2 115.8 L 13.8 115.8 Z M 13.8 115.8 "></path></clipPath><g clip-path="url(#clip-19)"><path d="M 7.0 5.5 L 486.4 5.5 L 486.4 115.8 L 7.0 115.8 Z M 7.0 5.5 " fill="url(#6200B87B-951F-4DCE-B89A-29002F058394)"></path><path d="M 7.0 115.8 L 486.4 115.8 L 486.4 5.5 L 7.0 5.5 Z M 7.0 115.8 " fill="#00D026" fill-opacity="0.50"></path></g></g><g><clipPath id="clip-20"><path d="M 3.0 5.5 L 244.1 5.5 L 244.1 115.8 L 3.0 115.8 Z M 3.0 5.5 "></path></clipPath><g clip-path="url(#clip-20)"><text xml:space="preserve" font-family="Helvetica-Bold" font-weight="bold" font-size="32.0" fill="#FEFFFE" transform="matrix(1.00, 0.00, -0.00, -1.00, 51.0, 49.0)">S</text><text xml:space="preserve" font-family="Helvetica-Bold" font-weight="bold" font-size="32.0" fill="#FEFFFE" transform="matrix(1.00, 0.00, -0.00, -1.00, 72.3, 49.0)">c</text><text xml:space="preserve" font-family="Helvetica-Bold" font-weight="bold" font-size="32.0" fill="#FEFFFE" transform="matrix(1.00, 0.00, -0.00, -1.00, 90.1, 49.0)">r</text><text xml:space="preserve" font-family="Helvetica-Bold" font-weight="bold" font-size="32.0" fill="#FEFFFE" transform="matrix(1.00, 0.00, -0.00, -1.00, 102.6, 49.0)">i</text><text xml:space="preserve" font-family="Helvetica-Bold" font-weight="bold" font-size="32.0" fill="#FEFFFE" transform="matrix(1.00, 0.00, -0.00, -1.00, 111.5, 49.0)">p</text><text xml:space="preserve" font-family="Helvetica-Bold" font-weight="bold" font-size="32.0" fill="#FEFFFE" transform="matrix(1.00, 0.00, -0.00, -1.00, 131.0, 49.0)">t</text><text xml:space="preserve" font-family="Helvetica-Bold" font-weight="bold" font-size="32.0" fill="#FEFFFE" transform="matrix(1.00, 0.00, -0.00, -1.00, 141.7, 49.0)"> </text><text xml:space="preserve" font-family="Helvetica-Bold" font-weight="bold" font-size="32.0" fill="#FEFFFE" transform="matrix(1.00, 0.00, -0.00, -1.00, 150.6, 49.0)">ï¬</text><text xml:space="preserve" font-family="Helvetica-Bold" font-weight="bold" font-size="32.0" fill="#FEFFFE" transform="matrix(1.00, 0.00, -0.00, -1.00, 170.1, 49.0)">l</text><text xml:space="preserve" font-family="Helvetica-Bold" font-weight="bold" font-size="32.0" fill="#FEFFFE" transform="matrix(1.00, 0.00, -0.00, -1.00, 179.0, 49.0)">e</text></g></g></g></svg>