<?xml version="1.0" encoding="UTF-8" standalone="no"?><svg xmlns="http://www.w3.org/2000/svg" xmlns:xlink="http://www.w3.org/1999/xlink" clip-rule="evenodd" stroke-miterlimit="4.00" viewBox="0 0 812 301"><desc>SVG generated by Keynote</desc><defs><pattern id="B8223DF2-2D3A-41D0-A24B-3CB809AC3DFD" patternUnits="userSpaceOnUse" width="300" height="300" viewBox="0 0 300 300" patternTransform="matrix(1.000000, 0.000000, 0.000000, -1.000000, 6.919800, 295.335300)"><image xlink:href="../../03A97BAE-1F82-4828-A3BE-307A56E6698B/assets/90096E66F30E4D38552F9ACA9C23E8B7.jpeg" width="300.00" height="300.00"></image></pattern></defs><g transform="matrix(1.00, 0.00, -0.00, -1.00, 0.0, 301.0)"><image xlink:href="6C6305D82E06912B7BFDEB1494098218.png" width="807.00" height="297.00" transform="matrix(1.00, 0.00, -0.00, -1.00, 3.9, 299.3)" opacity="0.50"></image><g><clipPath id="clip-149"><path d="M 6.9 295.3 L 345.1 116.1 L 345.1 15.8 C 345.1 10.3 349.5 5.9 355.0 5.9 L 795.7 5.9 C 801.1 5.9 805.6 10.3 805.6 15.8 L 805.6 133.9 C 805.6 139.4 801.1 143.8 795.7 143.8 L 384.9 143.8 L 6.9 295.3 Z M 6.9 295.3 "></path></clipPath><g clip-path="url(#clip-149)"><path d="M 6.9 5.9 L 805.6 5.9 L 805.6 295.3 L 6.9 295.3 Z M 6.9 5.9 " fill="url(#B8223DF2-2D3A-41D0-A24B-3CB809AC3DFD)"></path><path d="M 6.9 295.3 L 805.6 295.3 L 805.6 5.9 L 6.9 5.9 Z M 6.9 295.3 " fill="#00D026" fill-opacity="0.50"></path></g></g><g><clipPath id="clip-150"><path d="M 341.1 5.9 L 809.6 5.9 L 809.6 143.8 L 341.1 143.8 Z M 341.1 5.9 "></path></clipPath><g clip-path="url(#clip-150)"><text xml:space="preserve" font-family="Helvetica-Bold" font-weight="bold" font-size="32.0" fill="#FEFFFE" transform="matrix(1.00, 0.00, -0.00, -1.00, 460.0, 97.0)">D</text><text xml:space="preserve" font-family="Helvetica-Bold" font-weight="bold" font-size="32.0" fill="#FEFFFE" transform="matrix(1.00, 0.00, -0.00, -1.00, 483.1, 97.0)">e</text><text xml:space="preserve" font-family="Helvetica-Bold" font-weight="bold" font-size="32.0" fill="#FEFFFE" transform="matrix(1.00, 0.00, -0.00, -1.00, 500.9, 97.0)">f</text><text xml:space="preserve" font-family="Helvetica-Bold" font-weight="bold" font-size="32.0" fill="#FEFFFE" transform="matrix(1.00, 0.00, -0.00, -1.00, 511.6, 97.0)">a</text><text xml:space="preserve" font-family="Helvetica-Bold" font-weight="bold" font-size="32.0" fill="#FEFFFE" transform="matrix(1.00, 0.00, -0.00, -1.00, 529.4, 97.0)">u</text><text xml:space="preserve" font-family="Helvetica-Bold" font-weight="bold" font-size="32.0" fill="#FEFFFE" transform="matrix(1.00, 0.00, -0.00, -1.00, 548.9, 97.0)">l</text><text xml:space="preserve" font-family="Helvetica-Bold" font-weight="bold" font-size="32.0" fill="#FEFFFE" transform="matrix(1.00, 0.00, -0.00, -1.00, 557.8, 97.0)">t</text><text xml:space="preserve" font-family="Helvetica-Bold" font-weight="bold" font-size="32.0" fill="#FEFFFE" transform="matrix(1.00, 0.00, -0.00, -1.00, 568.5, 97.0)"> </text><text xml:space="preserve" font-family="Helvetica-Bold" font-weight="bold" font-size="32.0" fill="#FEFFFE" transform="matrix(1.00, 0.00, -0.00, -1.00, 577.3, 97.0)">v</text><text xml:space="preserve" font-family="Helvetica-Bold" font-weight="bold" font-size="32.0" fill="#FEFFFE" transform="matrix(1.00, 0.00, -0.00, -1.00, 595.1, 97.0)">e</text><text xml:space="preserve" font-family="Helvetica-Bold" font-weight="bold" font-size="32.0" fill="#FEFFFE" transform="matrix(1.00, 0.00, -0.00, -1.00, 613.0, 97.0)">r</text><text xml:space="preserve" font-family="Helvetica-Bold" font-weight="bold" font-size="32.0" fill="#FEFFFE" transform="matrix(1.00, 0.00, -0.00, -1.00, 625.4, 97.0)">s</text><text xml:space="preserve" font-family="Helvetica-Bold" font-weight="bold" font-size="32.0" fill="#FEFFFE" transform="matrix(1.00, 0.00, -0.00, -1.00, 643.2, 97.0)">i</text><text xml:space="preserve" font-family="Helvetica-Bold" font-weight="bold" font-size="32.0" fill="#FEFFFE" transform="matrix(1.00, 0.00, -0.00, -1.00, 652.1, 97.0)">o</text><text xml:space="preserve" font-family="Helvetica-Bold" font-weight="bold" font-size="32.0" fill="#FEFFFE" transform="matrix(1.00, 0.00, -0.00, -1.00, 671.6, 97.0)">n</text><text xml:space="preserve" font-family="Helvetica-Bold" font-weight="bold" font-size="32.0" fill="#FEFFFE" transform="matrix(1.00, 0.00, -0.00, -1.00, 691.2, 97.0)"> </text><text xml:space="preserve" font-family="Helvetica-Bold" font-weight="bold" font-size="28.0" fill="#FEFFFE" transform="matrix(1.00, 0.00, -0.00, -1.00, 377.0, 62.0)">(</text><text xml:space="preserve" font-family="Helvetica-Bold" font-weight="bold" font-size="28.0" fill="#FEFFFE" transform="matrix(1.00, 0.00, -0.00, -1.00, 386.3, 62.0)">c</text><text xml:space="preserve" font-family="Helvetica-Bold" font-weight="bold" font-size="28.0" fill="#FEFFFE" transform="matrix(1.00, 0.00, -0.00, -1.00, 401.9, 62.0)">o</text><text xml:space="preserve" font-family="Helvetica-Bold" font-weight="bold" font-size="28.0" fill="#FEFFFE" transform="matrix(1.00, 0.00, -0.00, -1.00, 419.0, 62.0)">r</text><text xml:space="preserve" font-family="Helvetica-Bold" font-weight="bold" font-size="28.0" fill="#FEFFFE" transform="matrix(1.00, 0.00, -0.00, -1.00, 429.9, 62.0)">r</text><text xml:space="preserve" font-family="Helvetica-Bold" font-weight="bold" font-size="28.0" fill="#FEFFFE" transform="matrix(1.00, 0.00, -0.00, -1.00, 440.8, 62.0)">e</text><text xml:space="preserve" font-family="Helvetica-Bold" font-weight="bold" font-size="28.0" fill="#FEFFFE" transform="matrix(1.00, 0.00, -0.00, -1.00, 456.4, 62.0)">l</text><text xml:space="preserve" font-family="Helvetica-Bold" font-weight="bold" font-size="28.0" fill="#FEFFFE" transform="matrix(1.00, 0.00, -0.00, -1.00, 464.2, 62.0)">a</text><text xml:space="preserve" font-family="Helvetica-Bold" font-weight="bold" font-size="28.0" fill="#FEFFFE" transform="matrix(1.00, 0.00, -0.00, -1.00, 479.7, 62.0)">t</text><text xml:space="preserve" font-family="Helvetica-Bold" font-weight="bold" font-size="28.0" fill="#FEFFFE" transform="matrix(1.00, 0.00, -0.00, -1.00, 489.1, 62.0)">e</text><text xml:space="preserve" font-family="Helvetica-Bold" font-weight="bold" font-size="28.0" fill="#FEFFFE" transform="matrix(1.00, 0.00, -0.00, -1.00, 504.6, 62.0)">s</text><text xml:space="preserve" font-family="Helvetica-Bold" font-weight="bold" font-size="28.0" fill="#FEFFFE" transform="matrix(1.00, 0.00, -0.00, -1.00, 520.2, 62.0)"> </text><text xml:space="preserve" font-family="Helvetica-Bold" font-weight="bold" font-size="28.0" fill="#FEFFFE" transform="matrix(1.00, 0.00, -0.00, -1.00, 528.0, 62.0)">t</text><text xml:space="preserve" font-family="Helvetica-Bold" font-weight="bold" font-size="28.0" fill="#FEFFFE" transform="matrix(1.00, 0.00, -0.00, -1.00, 537.3, 62.0)">o</text><text xml:space="preserve" font-family="Helvetica-Bold" font-weight="bold" font-size="28.0" fill="#FEFFFE" transform="matrix(1.00, 0.00, -0.00, -1.00, 554.4, 62.0)"> </text><text xml:space="preserve" font-family="Helvetica-Bold" font-weight="bold" font-size="28.0" fill="#FEFFFE" transform="matrix(1.00, 0.00, -0.00, -1.00, 562.2, 62.0)">b</text><text xml:space="preserve" font-family="Helvetica-Bold" font-weight="bold" font-size="28.0" fill="#FEFFFE" transform="matrix(1.00, 0.00, -0.00, -1.00, 579.3, 62.0)">r</text><text xml:space="preserve" font-family="Helvetica-Bold" font-weight="bold" font-size="28.0" fill="#FEFFFE" transform="matrix(1.00, 0.00, -0.00, -1.00, 590.2, 62.0)">a</text><text xml:space="preserve" font-family="Helvetica-Bold" font-weight="bold" font-size="28.0" fill="#FEFFFE" transform="matrix(1.00, 0.00, -0.00, -1.00, 605.8, 62.0)">n</text><text xml:space="preserve" font-family="Helvetica-Bold" font-weight="bold" font-size="28.0" fill="#FEFFFE" transform="matrix(1.00, 0.00, -0.00, -1.00, 622.9, 62.0)">c</text><text xml:space="preserve" font-family="Helvetica-Bold" font-weight="bold" font-size="28.0" fill="#FEFFFE" transform="matrix(1.00, 0.00, -0.00, -1.00, 638.4, 62.0)">h</text><text xml:space="preserve" font-family="Helvetica-Bold" font-weight="bold" font-size="28.0" fill="#FEFFFE" transform="matrix(1.00, 0.00, -0.00, -1.00, 655.5, 62.0)"> </text><text xml:space="preserve" font-family="Helvetica-Bold" font-weight="bold" font-size="28.0" fill="#FEFFFE" transform="matrix(1.00, 0.00, -0.00, -1.00, 663.3, 62.0)">o</text><text xml:space="preserve" font-family="Helvetica-Bold" font-weight="bold" font-size="28.0" fill="#FEFFFE" transform="matrix(1.00, 0.00, -0.00, -1.00, 680.4, 62.0)">r</text><text xml:space="preserve" font-family="Helvetica-Bold" font-weight="bold" font-size="28.0" fill="#FEFFFE" transform="matrix(1.00, 0.00, -0.00, -1.00, 691.3, 62.0)"> </text><text xml:space="preserve" font-family="Helvetica-Bold" font-weight="bold" font-size="28.0" fill="#FEFFFE" transform="matrix(1.00, 0.00, -0.00, -1.00, 699.1, 62.0)">t</text><text xml:space="preserve" font-family="Helvetica-Bold" font-weight="bold" font-size="28.0" fill="#FEFFFE" transform="matrix(1.00, 0.00, -0.00, -1.00, 708.4, 62.0)">a</text><text xml:space="preserve" font-family="Helvetica-Bold" font-weight="bold" font-size="28.0" fill="#FEFFFE" transform="matrix(1.00, 0.00, -0.00, -1.00, 724.0, 62.0)">g</text><text xml:space="preserve" font-family="Helvetica-Bold" font-weight="bold" font-size="28.0" fill="#FEFFFE" transform="matrix(1.00, 0.00, -0.00, -1.00, 741.1, 62.0)"> </text><text xml:space="preserve" font-family="Helvetica-Bold" font-weight="bold" font-size="28.0" fill="#FEFFFE" transform="matrix(1.00, 0.00, -0.00, -1.00, 748.9, 62.0)">i</text><text xml:space="preserve" font-family="Helvetica-Bold" font-weight="bold" font-size="28.0" fill="#FEFFFE" transform="matrix(1.00, 0.00, -0.00, -1.00, 756.6, 62.0)">n</text><text xml:space="preserve" font-family="Helvetica-Bold" font-weight="bold" font-size="28.0" fill="#FEFFFE" transform="matrix(1.00, 0.00, -0.00, -1.00, 773.7, 62.0)"> </text><text xml:space="preserve" font-family="Helvetica-Bold" font-weight="bold" font-size="28.0" fill="#FEFFFE" transform="matrix(1.00, 0.00, -0.00, -1.00, 473.0, 28.0)">s</text><text xml:space="preserve" font-family="Helvetica-Bold" font-weight="bold" font-size="28.0" fill="#FEFFFE" transform="matrix(1.00, 0.00, -0.00, -1.00, 488.6, 28.0)">o</text><text xml:space="preserve" font-family="Helvetica-Bold" font-weight="bold" font-size="28.0" fill="#FEFFFE" transform="matrix(1.00, 0.00, -0.00, -1.00, 505.7, 28.0)">u</text><text xml:space="preserve" font-family="Helvetica-Bold" font-weight="bold" font-size="28.0" fill="#FEFFFE" transform="matrix(1.00, 0.00, -0.00, -1.00, 522.8, 28.0)">r</text><text xml:space="preserve" font-family="Helvetica-Bold" font-weight="bold" font-size="28.0" fill="#FEFFFE" transform="matrix(1.00, 0.00, -0.00, -1.00, 533.7, 28.0)">c</text><text xml:space="preserve" font-family="Helvetica-Bold" font-weight="bold" font-size="28.0" fill="#FEFFFE" transform="matrix(1.00, 0.00, -0.00, -1.00, 549.3, 28.0)">e</text><text xml:space="preserve" font-family="Helvetica-Bold" font-weight="bold" font-size="28.0" fill="#FEFFFE" transform="matrix(1.00, 0.00, -0.00, -1.00, 564.8, 28.0)"> </text><text xml:space="preserve" font-family="Helvetica-Bold" font-weight="bold" font-size="28.0" fill="#FEFFFE" transform="matrix(1.00, 0.00, -0.00, -1.00, 572.6, 28.0)">c</text><text xml:space="preserve" font-family="Helvetica-Bold" font-weight="bold" font-size="28.0" fill="#FEFFFE" transform="matrix(1.00, 0.00, -0.00, -1.00, 588.2, 28.0)">o</text><text xml:space="preserve" font-family="Helvetica-Bold" font-weight="bold" font-size="28.0" fill="#FEFFFE" transform="matrix(1.00, 0.00, -0.00, -1.00, 605.3, 28.0)">n</text><text xml:space="preserve" font-family="Helvetica-Bold" font-weight="bold" font-size="28.0" fill="#FEFFFE" transform="matrix(1.00, 0.00, -0.00, -1.00, 622.4, 28.0)">t</text><text xml:space="preserve" font-family="Helvetica-Bold" font-weight="bold" font-size="28.0" fill="#FEFFFE" transform="matrix(1.00, 0.00, -0.00, -1.00, 631.7, 28.0)">r</text><text xml:space="preserve" font-family="Helvetica-Bold" font-weight="bold" font-size="28.0" fill="#FEFFFE" transform="matrix(1.00, 0.00, -0.00, -1.00, 642.6, 28.0)">o</text><text xml:space="preserve" font-family="Helvetica-Bold" font-weight="bold" font-size="28.0" fill="#FEFFFE" transform="matrix(1.00, 0.00, -0.00, -1.00, 659.7, 28.0)">l</text><text xml:space="preserve" font-family="Helvetica-Bold" font-weight="bold" font-size="28.0" fill="#FEFFFE" transform="matrix(1.00, 0.00, -0.00, -1.00, 667.5, 28.0)">)</text></g></g></g></svg>