<?xml version="1.0" encoding="UTF-8" standalone="no"?><svg xmlns="http://www.w3.org/2000/svg" xmlns:xlink="http://www.w3.org/1999/xlink" clip-rule="evenodd" stroke-miterlimit="4.00" viewBox="0 0 1091 86"><desc>SVG generated by Keynote</desc><defs></defs><g transform="matrix(1.00, 0.00, -0.00, -1.00, 0.0, 86.0)"><text xml:space="preserve" font-family="Helvetica-Light" font-size="112.0" fill="#000000" transform="matrix(1.00, 0.00, -0.00, -1.00, -1.0, 4.0)">J</text><text xml:space="preserve" font-family="Helvetica-Light" font-size="112.0" fill="#000000" transform="matrix(1.00, 0.00, -0.00, -1.00, 55.0, 4.0)">e</text><text xml:space="preserve" font-family="Helvetica-Light" font-size="112.0" fill="#000000" transform="matrix(1.00, 0.00, -0.00, -1.00, 117.3, 4.0)">n</text><text xml:space="preserve" font-family="Helvetica-Light" font-size="112.0" fill="#000000" transform="matrix(1.00, 0.00, -0.00, -1.00, 179.5, 4.0)">k</text><text xml:space="preserve" font-family="Helvetica-Light" font-size="112.0" fill="#000000" transform="matrix(1.00, 0.00, -0.00, -1.00, 235.5, 4.0)">i</text><text xml:space="preserve" font-family="Helvetica-Light" font-size="112.0" fill="#000000" transform="matrix(1.00, 0.00, -0.00, -1.00, 260.4, 4.0)">n</text><text xml:space="preserve" font-family="Helvetica-Light" font-size="112.0" fill="#000000" transform="matrix(1.00, 0.00, -0.00, -1.00, 322.7, 4.0)">s</text><text xml:space="preserve" font-family="Helvetica-Light" font-size="112.0" fill="#000000" transform="matrix(1.00, 0.00, -0.00, -1.00, 378.7, 4.0)"> </text><text xml:space="preserve" font-family="Helvetica-Light" font-size="112.0" fill="#000000" transform="matrix(1.00, 0.00, -0.00, -1.00, 409.8, 4.0)">i</text><text xml:space="preserve" font-family="Helvetica-Light" font-size="112.0" fill="#000000" transform="matrix(1.00, 0.00, -0.00, -1.00, 434.7, 4.0)">s</text><text xml:space="preserve" font-family="Helvetica-Light" font-size="112.0" fill="#000000" transform="matrix(1.00, 0.00, -0.00, -1.00, 490.7, 4.0)"> </text><text xml:space="preserve" font-family="Helvetica-Light" font-size="112.0" fill="#000000" transform="matrix(1.00, 0.00, -0.00, -1.00, 521.8, 4.0)">s</text><text xml:space="preserve" font-family="Helvetica-Light" font-size="112.0" fill="#000000" transform="matrix(1.00, 0.00, -0.00, -1.00, 577.8, 4.0)">t</text><text xml:space="preserve" font-family="Helvetica-Light" font-size="112.0" fill="#000000" transform="matrix(1.00, 0.00, -0.00, -1.00, 609.0, 4.0)">i</text><text xml:space="preserve" font-family="Helvetica-Light" font-size="112.0" fill="#000000" transform="matrix(1.00, 0.00, -0.00, -1.00, 633.8, 4.0)">l</text><text xml:space="preserve" font-family="Helvetica-Light" font-size="112.0" fill="#000000" transform="matrix(1.00, 0.00, -0.00, -1.00, 658.7, 4.0)">l</text><text xml:space="preserve" font-family="Helvetica-Light" font-size="112.0" fill="#000000" transform="matrix(1.00, 0.00, -0.00, -1.00, 683.5, 4.0)"> </text><text xml:space="preserve" font-family="Helvetica-Light" font-size="112.0" fill="#000000" transform="matrix(1.00, 0.00, -0.00, -1.00, 714.7, 4.0)">J</text><text xml:space="preserve" font-family="Helvetica-Light" font-size="112.0" fill="#000000" transform="matrix(1.00, 0.00, -0.00, -1.00, 770.7, 4.0)">e</text><text xml:space="preserve" font-family="Helvetica-Light" font-size="112.0" fill="#000000" transform="matrix(1.00, 0.00, -0.00, -1.00, 833.0, 4.0)">n</text><text xml:space="preserve" font-family="Helvetica-Light" font-size="112.0" fill="#000000" transform="matrix(1.00, 0.00, -0.00, -1.00, 895.2, 4.0)">k</text><text xml:space="preserve" font-family="Helvetica-Light" font-size="112.0" fill="#000000" transform="matrix(1.00, 0.00, -0.00, -1.00, 951.2, 4.0)">i</text><text xml:space="preserve" font-family="Helvetica-Light" font-size="112.0" fill="#000000" transform="matrix(1.00, 0.00, -0.00, -1.00, 976.1, 4.0)">n</text><text xml:space="preserve" font-family="Helvetica-Light" font-size="112.0" fill="#000000" transform="matrix(1.00, 0.00, -0.00, -1.00, 1038.4, 4.0)">s</text></g></svg>