<?xml version="1.0" encoding="UTF-8" standalone="no"?><svg xmlns="http://www.w3.org/2000/svg" xmlns:xlink="http://www.w3.org/1999/xlink" clip-rule="evenodd" stroke-miterlimit="4.00" viewBox="0 0 485 61"><desc>SVG generated by Keynote</desc><defs></defs><g transform="matrix(1.00, 0.00, -0.00, -1.00, 0.0, 61.0)"><text xml:space="preserve" font-family="Helvetica-Bold" font-weight="bold" font-size="60.0" fill="#FF2600" transform="matrix(1.00, 0.00, -0.00, -1.00, -3.0, 14.0)">P</text><text xml:space="preserve" font-family="Helvetica-Bold" font-weight="bold" font-size="60.0" fill="#FF2600" transform="matrix(1.00, 0.00, -0.00, -1.00, 37.0, 14.0)">i</text><text xml:space="preserve" font-family="Helvetica-Bold" font-weight="bold" font-size="60.0" fill="#FF2600" transform="matrix(1.00, 0.00, -0.00, -1.00, 53.7, 14.0)">p</text><text xml:space="preserve" font-family="Helvetica-Bold" font-weight="bold" font-size="60.0" fill="#FF2600" transform="matrix(1.00, 0.00, -0.00, -1.00, 90.3, 14.0)">e</text><text xml:space="preserve" font-family="Helvetica-Bold" font-weight="bold" font-size="60.0" fill="#FF2600" transform="matrix(1.00, 0.00, -0.00, -1.00, 123.7, 14.0)">l</text><text xml:space="preserve" font-family="Helvetica-Bold" font-weight="bold" font-size="60.0" fill="#FF2600" transform="matrix(1.00, 0.00, -0.00, -1.00, 140.4, 14.0)">i</text><text xml:space="preserve" font-family="Helvetica-Bold" font-weight="bold" font-size="60.0" fill="#FF2600" transform="matrix(1.00, 0.00, -0.00, -1.00, 157.0, 14.0)">n</text><text xml:space="preserve" font-family="Helvetica-Bold" font-weight="bold" font-size="60.0" fill="#FF2600" transform="matrix(1.00, 0.00, -0.00, -1.00, 193.7, 14.0)">e</text><text xml:space="preserve" font-family="Helvetica-Bold" font-weight="bold" font-size="60.0" fill="#FF2600" transform="matrix(1.00, 0.00, -0.00, -1.00, 227.0, 14.0)"> </text><text xml:space="preserve" font-family="Helvetica-Bold" font-weight="bold" font-size="60.0" fill="#FF2600" transform="matrix(1.00, 0.00, -0.00, -1.00, 243.7, 14.0)">C</text><text xml:space="preserve" font-family="Helvetica-Bold" font-weight="bold" font-size="60.0" fill="#FF2600" transform="matrix(1.00, 0.00, -0.00, -1.00, 287.0, 14.0)">r</text><text xml:space="preserve" font-family="Helvetica-Bold" font-weight="bold" font-size="60.0" fill="#FF2600" transform="matrix(1.00, 0.00, -0.00, -1.00, 310.4, 14.0)">e</text><text xml:space="preserve" font-family="Helvetica-Bold" font-weight="bold" font-size="60.0" fill="#FF2600" transform="matrix(1.00, 0.00, -0.00, -1.00, 343.8, 14.0)">a</text><text xml:space="preserve" font-family="Helvetica-Bold" font-weight="bold" font-size="60.0" fill="#FF2600" transform="matrix(1.00, 0.00, -0.00, -1.00, 377.2, 14.0)">t</text><text xml:space="preserve" font-family="Helvetica-Bold" font-weight="bold" font-size="60.0" fill="#FF2600" transform="matrix(1.00, 0.00, -0.00, -1.00, 397.1, 14.0)">i</text><text xml:space="preserve" font-family="Helvetica-Bold" font-weight="bold" font-size="60.0" fill="#FF2600" transform="matrix(1.00, 0.00, -0.00, -1.00, 413.8, 14.0)">o</text><text xml:space="preserve" font-family="Helvetica-Bold" font-weight="bold" font-size="60.0" fill="#FF2600" transform="matrix(1.00, 0.00, -0.00, -1.00, 450.4, 14.0)">n</text></g></svg>