<?xml version="1.0" encoding="UTF-8" standalone="no"?><svg xmlns="http://www.w3.org/2000/svg" xmlns:xlink="http://www.w3.org/1999/xlink" clip-rule="evenodd" stroke-miterlimit="4.00" viewBox="0 0 1920 1080"><desc>SVG generated by Keynote</desc><defs></defs><g transform="matrix(1.00, 0.00, -0.00, -1.00, 0.0, 1080.0)"><path d="M 0.0 1080.0 L 1920.0 1080.0 L 1920.0 0.0 L 0.0 0.0 Z M 0.0 1080.0 " fill="#FEFFFF"></path><text xml:space="preserve" font-family="Helvetica-Light" font-size="112.0" fill="#000000" transform="matrix(1.00, 0.00, -0.00, -1.00, 464.0, 874.0)">T</text><text xml:space="preserve" font-family="Helvetica-Light" font-size="112.0" fill="#000000" transform="matrix(1.00, 0.00, -0.00, -1.00, 516.9, 874.0)">w</text><text xml:space="preserve" font-family="Helvetica-Light" font-size="112.0" fill="#000000" transform="matrix(1.00, 0.00, -0.00, -1.00, 597.7, 874.0)">o</text><text xml:space="preserve" font-family="Helvetica-Light" font-size="112.0" fill="#000000" transform="matrix(1.00, 0.00, -0.00, -1.00, 660.0, 874.0)"> </text><text xml:space="preserve" font-family="Helvetica-Light" font-size="112.0" fill="#000000" transform="matrix(1.00, 0.00, -0.00, -1.00, 691.1, 874.0)">D</text><text xml:space="preserve" font-family="Helvetica-Light" font-size="112.0" fill="#000000" transform="matrix(1.00, 0.00, -0.00, -1.00, 772.0, 874.0)">i</text><text xml:space="preserve" font-family="Helvetica-Light" font-size="112.0" fill="#000000" transform="matrix(1.00, 0.00, -0.00, -1.00, 796.9, 874.0)">s</text><text xml:space="preserve" font-family="Helvetica-Light" font-size="112.0" fill="#000000" transform="matrix(1.00, 0.00, -0.00, -1.00, 852.9, 874.0)">t</text><text xml:space="preserve" font-family="Helvetica-Light" font-size="112.0" fill="#000000" transform="matrix(1.00, 0.00, -0.00, -1.00, 884.0, 874.0)">i</text><text xml:space="preserve" font-family="Helvetica-Light" font-size="112.0" fill="#000000" transform="matrix(1.00, 0.00, -0.00, -1.00, 908.9, 874.0)">n</text><text xml:space="preserve" font-family="Helvetica-Light" font-size="112.0" fill="#000000" transform="matrix(1.00, 0.00, -0.00, -1.00, 971.1, 874.0)">c</text><text xml:space="preserve" font-family="Helvetica-Light" font-size="112.0" fill="#000000" transform="matrix(1.00, 0.00, -0.00, -1.00, 1033.4, 874.0)">t</text><text xml:space="preserve" font-family="Helvetica-Light" font-size="112.0" fill="#000000" transform="matrix(1.00, 0.00, -0.00, -1.00, 1064.5, 874.0)"> </text><text xml:space="preserve" font-family="Helvetica-Light" font-size="112.0" fill="#000000" transform="matrix(1.00, 0.00, -0.00, -1.00, 1095.7, 874.0)">F</text><text xml:space="preserve" font-family="Helvetica-Light" font-size="112.0" fill="#000000" transform="matrix(1.00, 0.00, -0.00, -1.00, 1158.0, 874.0)">l</text><text xml:space="preserve" font-family="Helvetica-Light" font-size="112.0" fill="#000000" transform="matrix(1.00, 0.00, -0.00, -1.00, 1182.8, 874.0)">a</text><text xml:space="preserve" font-family="Helvetica-Light" font-size="112.0" fill="#000000" transform="matrix(1.00, 0.00, -0.00, -1.00, 1245.1, 874.0)">v</text><text xml:space="preserve" font-family="Helvetica-Light" font-size="112.0" fill="#000000" transform="matrix(1.00, 0.00, -0.00, -1.00, 1301.1, 874.0)">o</text><text xml:space="preserve" font-family="Helvetica-Light" font-size="112.0" fill="#000000" transform="matrix(1.00, 0.00, -0.00, -1.00, 1363.4, 874.0)">r</text><text xml:space="preserve" font-family="Helvetica-Light" font-size="112.0" fill="#000000" transform="matrix(1.00, 0.00, -0.00, -1.00, 1400.7, 874.0)">s</text></g></svg>